<svg version="1.1" viewBox="0.0 0.0 960.0 540.0" fill="none" stroke="none" stroke-linecap="square" stroke-miterlimit="10" xmlns:xlink="http://www.w3.org/1999/xlink" xmlns="http://www.w3.org/2000/svg"><clipPath id="g1552e9abe47_0_0.0"><path d="m0 0l960.0 0l0 540.0l-960.0 0l0 -540.0z" clip-rule="nonzero"/></clipPath><g clip-path="url(#g1552e9abe47_0_0.0)"><path fill="#d9d9d9" d="m417.29135 95.05643l125.41733 0l0 125.41733l-125.41733 0z" fill-rule="evenodd"/><path stroke="#595959" stroke-width="1.0" stroke-linejoin="round" stroke-linecap="butt" d="m417.29135 95.05643l125.41733 0l0 125.41733l-125.41733 0z" fill-rule="evenodd"/><path fill="#d9d9d9" d="m417.29135 220.48163l125.41733 0l0 125.41733l-125.41733 0z" fill-rule="evenodd"/><path stroke="#595959" stroke-width="1.0" stroke-linejoin="round" stroke-linecap="butt" d="m417.29135 220.48163l125.41733 0l0 125.41733l-125.41733 0z" fill-rule="evenodd"/><path fill="#d9d9d9" d="m417.29135 345.90683l125.41733 0l0 125.41733l-125.41733 0z" fill-rule="evenodd"/><path stroke="#595959" stroke-width="1.0" stroke-linejoin="round" stroke-linecap="butt" d="m417.29135 345.90683l125.41733 0l0 125.41733l-125.41733 0z" fill-rule="evenodd"/><path fill="#000000" fill-opacity="0.0" d="m417.29135 81.85958l13.196838 -13.196854l0 6.598427l99.02365 0l0 -6.598427l13.196838 13.196854l-13.196838 13.196846l0 -6.598419l-99.02365 0l0 6.598419z" fill-rule="evenodd"/><path stroke="#595959" stroke-width="1.0" stroke-linejoin="round" stroke-linecap="butt" d="m417.29135 81.85958l13.196838 -13.196854l0 6.598427l99.02365 0l0 -6.598427l13.196838 13.196854l-13.196838 13.196846l0 -6.598419l-99.02365 0l0 6.598419z" fill-rule="evenodd"/><path fill="#000000" d="m448.92783 83.979576l0 -3.8125l0.5 0l0 3.359375l1.875 0l0 0.453125l-2.375 0zm2.5726318 0l1.453125 -3.8125l0.546875 0l1.5625 3.8125l-0.578125 0l-0.4375 -1.15625l-1.59375 0l-0.421875 1.15625l-0.53125 0zm1.09375 -1.5625l1.296875 0l-0.40625 -1.0625q-0.171875 -0.484375 -0.265625 -0.78125q-0.078125 0.359375 -0.203125 0.71875l-0.421875 1.125zm2.866333 1.5625l0 -3.8125l0.515625 0l2.0 3.0l0 -3.0l0.484375 0l0 3.8125l-0.515625 0l-2.0 -3.0l0 3.0l-0.484375 0zm3.8478088 0l0 -3.8125l1.3125 0q0.453125 0 0.6875 0.046875q0.328125 0.078125 0.5625 0.28125q0.296875 0.25 0.4375 0.65625q0.15625 0.390625 0.15625 0.90625q0 0.421875 -0.109375 0.765625q-0.09375 0.328125 -0.25 0.5625q-0.15625 0.21875 -0.34375 0.34375q-0.1875 0.125 -0.453125 0.1875q-0.265625 0.0625 -0.625 0.0625l-1.375 0zm0.515625 -0.453125l0.8125 0q0.375 0 0.578125 -0.0625q0.21875 -0.078125 0.359375 -0.203125q0.171875 -0.171875 0.265625 -0.46875q0.109375 -0.3125 0.109375 -0.75q0 -0.59375 -0.203125 -0.90625q-0.1875 -0.328125 -0.46875 -0.4375q-0.203125 -0.078125 -0.65625 -0.078125l-0.796875 0l0 2.90625zm2.8478088 1.515625l0 -0.34375l3.09375 0l0 0.34375l-3.09375 0zm6.166382 -2.40625l0.515625 0.140625q-0.15625 0.609375 -0.578125 0.9375q-0.40625 0.328125 -1.0 0.328125q-0.625 0 -1.015625 -0.25q-0.375 -0.25 -0.578125 -0.71875q-0.203125 -0.484375 -0.203125 -1.03125q0 -0.59375 0.21875 -1.03125q0.234375 -0.453125 0.65625 -0.671875q0.421875 -0.234375 0.921875 -0.234375q0.578125 0 0.96875 0.296875q0.390625 0.28125 0.546875 0.8125l-0.5 0.109375q-0.140625 -0.40625 -0.390625 -0.59375q-0.25 -0.203125 -0.625 -0.203125q-0.453125 0 -0.75 0.21875q-0.28125 0.203125 -0.40625 0.5625q-0.125 0.359375 -0.125 0.734375q0 0.484375 0.140625 0.859375q0.140625 0.359375 0.4375 0.546875q0.3125 0.171875 0.65625 0.171875q0.421875 0 0.71875 -0.25q0.296875 -0.25 0.390625 -0.734375zm1.1446838 1.34375l0 -3.8125l0.515625 0l0 1.5625l1.96875 0l0 -1.5625l0.515625 0l0 3.8125l-0.515625 0l0 -1.796875l-1.96875 0l0 1.796875l-0.515625 0zm6.332184 -3.8125l0.515625 0l0 2.203125q0 0.578125 -0.140625 0.921875q-0.125 0.328125 -0.46875 0.546875q-0.328125 0.203125 -0.890625 0.203125q-0.53125 0 -0.875 -0.171875q-0.34375 -0.1875 -0.484375 -0.53125q-0.140625 -0.359375 -0.140625 -0.96875l0 -2.203125l0.5 0l0 2.203125q0 0.5 0.09375 0.734375q0.09375 0.234375 0.3125 0.359375q0.234375 0.125 0.5625 0.125q0.546875 0 0.78125 -0.25q0.234375 -0.25 0.234375 -0.96875l0 -2.203125zm1.3478088 3.8125l0 -3.8125l0.515625 0l2.0 3.0l0 -3.0l0.484375 0l0 3.8125l-0.515625 0l-2.0 -3.0l0 3.0l-0.484375 0zm3.8321838 0l0 -3.8125l0.5 0l0 1.890625l1.890625 -1.890625l0.6875 0l-1.59375 1.546875l1.671875 2.265625l-0.671875 0l-1.359375 -1.9375l-0.625 0.609375l0 1.328125l-0.5 0zm3.0850525 1.0625l0 -0.34375l3.09375 0l0 0.34375l-3.09375 0zm3.2757568 -2.28125l0.484375 -0.046875q0.03125 0.28125 0.15625 0.46875q0.125 0.1875 0.375 0.296875q0.265625 0.109375 0.59375 0.109375q0.28125 0 0.5 -0.078125q0.234375 -0.09375 0.328125 -0.234375q0.109375 -0.15625 0.109375 -0.328125q0 -0.1875 -0.109375 -0.3125q-0.09375 -0.140625 -0.328125 -0.234375q-0.15625 -0.0625 -0.6875 -0.1875q-0.515625 -0.125 -0.734375 -0.234375q-0.265625 -0.140625 -0.40625 -0.34375q-0.125 -0.21875 -0.125 -0.484375q0 -0.28125 0.15625 -0.53125q0.171875 -0.265625 0.484375 -0.390625q0.3125 -0.125 0.703125 -0.125q0.421875 0 0.734375 0.140625q0.328125 0.125 0.5 0.390625q0.171875 0.265625 0.1875 0.609375l-0.484375 0.03125q-0.03125 -0.359375 -0.265625 -0.546875q-0.21875 -0.1875 -0.65625 -0.1875q-0.453125 0 -0.671875 0.171875q-0.203125 0.171875 -0.203125 0.40625q0 0.203125 0.140625 0.328125q0.15625 0.140625 0.765625 0.28125q0.609375 0.140625 0.84375 0.234375q0.328125 0.15625 0.484375 0.390625q0.171875 0.234375 0.171875 0.546875q0 0.3125 -0.1875 0.578125q-0.171875 0.265625 -0.5 0.421875q-0.3125 0.140625 -0.734375 0.140625q-0.515625 0 -0.875 -0.140625q-0.34375 -0.15625 -0.546875 -0.453125q-0.1875 -0.3125 -0.203125 -0.6875zm3.819458 1.21875l0 -3.8125l0.5 0l0 3.8125l-0.5 0zm1.0896912 0l0 -0.46875l1.953125 -2.4375q0.203125 -0.265625 0.390625 -0.453125l-2.125 0l0 -0.453125l2.734375 0l0 0.453125l-2.140625 2.640625l-0.234375 0.265625l2.4375 0l0 0.453125l-3.015625 0zm3.5671387 0l0 -3.8125l2.75 0l0 0.453125l-2.25 0l0 1.15625l2.109375 0l0 0.453125l-2.109375 0l0 1.296875l2.34375 0l0 0.453125l-2.84375 0zm7.424774 -2.25l-2.515625 0l0 -0.421875l2.515625 0l0 0.421875zm0 1.171875l-2.515625 0l0 -0.4375l2.515625 0l0 0.4375zm2.0762634 0.203125l0.4375 -0.046875q0.0625 0.3125 0.21875 0.46875q0.171875 0.140625 0.421875 0.140625q0.21875 0 0.375 -0.09375q0.171875 -0.109375 0.265625 -0.265625q0.109375 -0.171875 0.171875 -0.453125q0.078125 -0.28125 0.078125 -0.578125q0 -0.03125 0 -0.09375q-0.140625 0.21875 -0.390625 0.359375q-0.234375 0.140625 -0.53125 0.140625q-0.46875 0 -0.796875 -0.34375q-0.328125 -0.34375 -0.328125 -0.90625q0 -0.578125 0.34375 -0.921875q0.34375 -0.359375 0.859375 -0.359375q0.375 0 0.671875 0.203125q0.3125 0.203125 0.46875 0.578125q0.171875 0.359375 0.171875 1.0625q0 0.734375 -0.171875 1.171875q-0.15625 0.421875 -0.46875 0.65625q-0.3125 0.21875 -0.734375 0.21875q-0.4375 0 -0.734375 -0.25q-0.28125 -0.25 -0.328125 -0.6875zm1.90625 -1.6875q0 -0.40625 -0.21875 -0.640625q-0.203125 -0.234375 -0.5 -0.234375q-0.3125 0 -0.546875 0.25q-0.234375 0.25 -0.234375 0.65625q0 0.375 0.21875 0.609375q0.21875 0.21875 0.546875 0.21875q0.328125 0 0.53125 -0.21875q0.203125 -0.234375 0.203125 -0.640625zm3.4163818 -0.3125l-0.46875 0.03125q-0.0625 -0.28125 -0.171875 -0.40625q-0.203125 -0.1875 -0.46875 -0.1875q-0.234375 0 -0.40625 0.125q-0.21875 0.15625 -0.34375 0.46875q-0.125 0.296875 -0.125 0.875q0.15625 -0.25 0.40625 -0.375q0.25 -0.125 0.515625 -0.125q0.46875 0 0.796875 0.34375q0.328125 0.34375 0.328125 0.890625q0 0.359375 -0.15625 0.671875q-0.15625 0.296875 -0.421875 0.46875q-0.265625 0.15625 -0.609375 0.15625q-0.59375 0 -0.96875 -0.421875q-0.359375 -0.4375 -0.359375 -1.421875q0 -1.109375 0.40625 -1.609375q0.359375 -0.4375 0.953125 -0.4375q0.453125 0 0.734375 0.25q0.296875 0.25 0.359375 0.703125zm-1.921875 1.640625q0 0.234375 0.09375 0.46875q0.109375 0.21875 0.296875 0.34375q0.1875 0.109375 0.390625 0.109375q0.296875 0 0.5 -0.234375q0.21875 -0.25 0.21875 -0.65625q0 -0.40625 -0.21875 -0.625q-0.203125 -0.234375 -0.515625 -0.234375q-0.3125 0 -0.546875 0.234375q-0.21875 0.21875 -0.21875 0.59375z" fill-rule="nonzero"/><path fill="#000000" fill-opacity="0.0" d="m555.9055 95.05643l13.196838 13.196854l-6.5983887 0l0 99.02362l6.5983887 0l-13.196838 13.196854l-13.196838 -13.196854l6.5983887 0l0 -99.02362l-6.5983887 0z" fill-rule="evenodd"/><path stroke="#595959" stroke-width="1.0" stroke-linejoin="round" stroke-linecap="butt" d="m555.9055 95.05643l13.196838 13.196854l-6.5983887 0l0 99.02362l6.5983887 0l-13.196838 13.196854l-13.196838 -13.196854l6.5983887 0l0 -99.02362l-6.5983887 0z" fill-rule="evenodd"/><path fill="#000000" d="m553.7855 126.692924l3.8125 0l0 0.5l-3.359375 0l0 1.8750076l-0.453125 0l0 -2.3750076zm0 2.5726395l3.8125 1.453125l0 0.546875l-3.8125 1.5625l0 -0.578125l1.15625 -0.4375l0 -1.59375l-1.15625 -0.421875l0 -0.53125zm1.5625 1.09375l0 1.296875l1.0625 -0.40625q0.484375 -0.171875 0.78125 -0.265625q-0.359375 -0.078125 -0.71875 -0.203125l-1.125 -0.421875zm-1.5625 2.8663177l3.8125 0l0 0.515625l-3.0 2.0l3.0 0l0 0.484375l-3.8125 0l0 -0.515625l3.0 -2.0l-3.0 0l0 -0.484375zm0 3.8478088l3.8125 0l0 1.3125q0 0.453125 -0.046875 0.6875q-0.078125 0.328125 -0.28125 0.5625q-0.25 0.296875 -0.65625 0.4375q-0.390625 0.15625 -0.90625 0.15625q-0.421875 0 -0.765625 -0.109375q-0.328125 -0.09375 -0.5625 -0.25q-0.21875 -0.15625 -0.34375 -0.34375q-0.125 -0.1875 -0.1875 -0.453125q-0.0625 -0.265625 -0.0625 -0.625l0 -1.375zm0.453125 0.515625l0 0.8125q0 0.375 0.0625 0.578125q0.078125 0.21875 0.203125 0.359375q0.171875 0.171875 0.46875 0.265625q0.3125 0.109375 0.75 0.109375q0.59375 0 0.90625 -0.203125q0.328125 -0.1875 0.4375 -0.46875q0.078125 -0.203125 0.078125 -0.65625l0 -0.796875l-2.90625 0zm-1.515625 2.8478088l0.34375 0l0 3.09375l-0.34375 0l0 -3.09375zm2.40625 6.166382l-0.140625 0.515625q-0.609375 -0.15625 -0.9375 -0.578125q-0.328125 -0.40625 -0.328125 -1.0q0 -0.625 0.25 -1.015625q0.25 -0.375 0.71875 -0.578125q0.484375 -0.203125 1.03125 -0.203125q0.59375 0 1.03125 0.21875q0.453125 0.234375 0.671875 0.65625q0.234375 0.421875 0.234375 0.921875q0 0.578125 -0.296875 0.96875q-0.28125 0.390625 -0.8125 0.546875l-0.109375 -0.5q0.40625 -0.140625 0.59375 -0.390625q0.203125 -0.25 0.203125 -0.625q0 -0.453125 -0.21875 -0.75q-0.203125 -0.28125 -0.5625 -0.40625q-0.359375 -0.125 -0.734375 -0.125q-0.484375 0 -0.859375 0.140625q-0.359375 0.140625 -0.546875 0.4375q-0.171875 0.3125 -0.171875 0.65625q0 0.421875 0.25 0.71875q0.25 0.296875 0.734375 0.390625zm-1.34375 1.1446838l3.8125 0l0 0.515625l-1.5625 0l0 1.96875l1.5625 0l0 0.515625l-3.8125 0l0 -0.515625l1.796875 0l0 -1.96875l-1.796875 0l0 -0.515625zm3.8125 6.332184l0 0.515625l-2.203125 0q-0.578125 0 -0.921875 -0.140625q-0.328125 -0.125 -0.546875 -0.46875q-0.203125 -0.328125 -0.203125 -0.890625q0 -0.53125 0.171875 -0.875q0.1875 -0.34375 0.53125 -0.484375q0.359375 -0.140625 0.96875 -0.140625l2.203125 0l0 0.5l-2.203125 0q-0.5 0 -0.734375 0.09375q-0.234375 0.09375 -0.359375 0.3125q-0.125 0.234375 -0.125 0.5625q0 0.546875 0.25 0.78125q0.25 0.234375 0.96875 0.234375l2.203125 0zm-3.8125 1.3478088l3.8125 0l0 0.515625l-3.0 2.0l3.0 0l0 0.484375l-3.8125 0l0 -0.515625l3.0 -2.0l-3.0 0l0 -0.484375zm0 3.8321838l3.8125 0l0 0.5l-1.890625 0l1.890625 1.890625l0 0.6875l-1.546875 -1.59375l-2.265625 1.671875l0 -0.671875l1.9375 -1.359375l-0.609375 -0.625l-1.328125 0l0 -0.5zm-1.0625 3.0850677l0.34375 0l0 3.09375l-0.34375 0l0 -3.09375zm2.28125 3.2757568l0.046875 0.484375q-0.28125 0.03125 -0.46875 0.15625q-0.1875 0.125 -0.296875 0.375q-0.109375 0.265625 -0.109375 0.59375q0 0.28125 0.078125 0.5q0.09375 0.234375 0.234375 0.328125q0.15625 0.109375 0.328125 0.109375q0.1875 0 0.3125 -0.109375q0.140625 -0.09375 0.234375 -0.328125q0.0625 -0.15625 0.1875 -0.6875q0.125 -0.515625 0.234375 -0.734375q0.140625 -0.265625 0.34375 -0.40625q0.21875 -0.125 0.484375 -0.125q0.28125 0 0.53125 0.15625q0.265625 0.171875 0.390625 0.484375q0.125 0.3125 0.125 0.703125q0 0.421875 -0.140625 0.734375q-0.125 0.328125 -0.390625 0.5q-0.265625 0.171875 -0.609375 0.1875l-0.03125 -0.484375q0.359375 -0.03125 0.546875 -0.265625q0.1875 -0.21875 0.1875 -0.65625q0 -0.453125 -0.171875 -0.671875q-0.171875 -0.203125 -0.40625 -0.203125q-0.203125 0 -0.328125 0.140625q-0.140625 0.15625 -0.28125 0.765625q-0.140625 0.609375 -0.234375 0.84375q-0.15625 0.328125 -0.390625 0.484375q-0.234375 0.171875 -0.546875 0.171875q-0.3125 0 -0.578125 -0.1875q-0.265625 -0.171875 -0.421875 -0.5q-0.140625 -0.3125 -0.140625 -0.734375q0 -0.515625 0.140625 -0.875q0.15625 -0.34375 0.453125 -0.546875q0.3125 -0.1875 0.6875 -0.203125zm-1.21875 3.8194427l3.8125 0l0 0.5l-3.8125 0l0 -0.5zm0 1.0897064l0.46875 0l2.4375 1.953125q0.265625 0.203125 0.453125 0.390625l0 -2.125l0.453125 0l0 2.734375l-0.453125 0l-2.640625 -2.140625l-0.265625 -0.234375l0 2.4375l-0.453125 0l0 -3.015625zm0 3.5671387l3.8125 0l0 2.75l-0.453125 0l0 -2.25l-1.15625 0l0 2.109375l-0.453125 0l0 -2.109375l-1.296875 0l0 2.34375l-0.453125 0l0 -2.84375zm2.25 7.424774l0 -2.515625l0.421875 0l0 2.515625l-0.421875 0zm-1.171875 0l0 -2.515625l0.4375 0l0 2.515625l-0.4375 0zm-0.203125 2.0762482l0.046875 0.4375q-0.3125 0.0625 -0.46875 0.21875q-0.140625 0.171875 -0.140625 0.421875q0 0.21875 0.09375 0.375q0.109375 0.171875 0.265625 0.265625q0.171875 0.109375 0.453125 0.171875q0.28125 0.078125 0.578125 0.078125q0.03125 0 0.09375 0q-0.21875 -0.140625 -0.359375 -0.390625q-0.140625 -0.234375 -0.140625 -0.53125q0 -0.46875 0.34375 -0.796875q0.34375 -0.328125 0.90625 -0.328125q0.578125 0 0.921875 0.34375q0.359375 0.34375 0.359375 0.859375q0 0.375 -0.203125 0.671875q-0.203125 0.3125 -0.578125 0.46875q-0.359375 0.171875 -1.0625 0.171875q-0.734375 0 -1.171875 -0.171875q-0.421875 -0.15625 -0.65625 -0.46875q-0.21875 -0.3125 -0.21875 -0.734375q0 -0.4375 0.25 -0.734375q0.25 -0.28125 0.6875 -0.328125zm1.6875 1.90625q0.40625 0 0.640625 -0.21875q0.234375 -0.203125 0.234375 -0.5q0 -0.3125 -0.25 -0.546875q-0.25 -0.234375 -0.65625 -0.234375q-0.375 0 -0.609375 0.21875q-0.21875 0.21875 -0.21875 0.546875q0 0.328125 0.21875 0.53125q0.234375 0.203125 0.640625 0.203125zm0.3125 3.4163818l-0.03125 -0.46875q0.28125 -0.0625 0.40625 -0.171875q0.1875 -0.203125 0.1875 -0.46875q0 -0.234375 -0.125 -0.40625q-0.15625 -0.21875 -0.46875 -0.34375q-0.296875 -0.125 -0.875 -0.125q0.25 0.15625 0.375 0.40625q0.125 0.25 0.125 0.515625q0 0.46875 -0.34375 0.796875q-0.34375 0.328125 -0.890625 0.328125q-0.359375 0 -0.671875 -0.15625q-0.296875 -0.15625 -0.46875 -0.421875q-0.15625 -0.265625 -0.15625 -0.609375q0 -0.59375 0.421875 -0.96875q0.4375 -0.359375 1.421875 -0.359375q1.109375 0 1.609375 0.40625q0.4375 0.359375 0.4375 0.953125q0 0.453125 -0.25 0.734375q-0.25 0.296875 -0.703125 0.359375zm-1.640625 -1.921875q-0.234375 0 -0.46875 0.09375q-0.21875 0.109375 -0.34375 0.296875q-0.109375 0.1875 -0.109375 0.390625q0 0.296875 0.234375 0.5q0.25 0.21875 0.65625 0.21875q0.40625 0 0.625 -0.21875q0.234375 -0.203125 0.234375 -0.515625q0 -0.3125 -0.234375 -0.546875q-0.21875 -0.21875 -0.59375 -0.21875z" fill-rule="nonzero"/><path fill="#000000" fill-opacity="0.0" d="m404.09448 95.05643l13.196869 13.196854l-6.5984497 0l0 349.51184l6.5984497 0l-13.196869 13.196838l-13.196838 -13.196838l6.598419 0l0 -349.51184l-6.598419 0z" fill-rule="evenodd"/><path stroke="#595959" stroke-width="1.0" stroke-linejoin="round" stroke-linecap="butt" d="m404.09448 95.05643l13.196869 13.196854l-6.5984497 0l0 349.51184l6.5984497 0l-13.196869 13.196838l-13.196838 -13.196838l6.598419 0l0 -349.51184l-6.598419 0z" fill-rule="evenodd"/><path fill="#000000" d="m401.9745 225.58382l3.8125 0l0 0.5l-3.359375 0l0 1.875l-0.453125 0l0 -2.375zm0 2.5726318l3.8125 1.453125l0 0.546875l-3.8125 1.5625l0 -0.578125l1.15625 -0.4375l0 -1.59375l-1.15625 -0.421875l0 -0.53125zm1.5625 1.09375l0 1.296875l1.0625 -0.40625q0.484375 -0.171875 0.78125 -0.265625q-0.359375 -0.078125 -0.71875 -0.203125l-1.125 -0.421875zm-1.5625 2.8663177l3.8125 0l0 0.515625l-3.0 2.0l3.0 0l0 0.484375l-3.8125 0l0 -0.515625l3.0 -2.0l-3.0 0l0 -0.484375zm0 3.8478088l3.8125 0l0 1.3125q0 0.453125 -0.046875 0.6875q-0.078125 0.328125 -0.28125 0.5625q-0.25 0.296875 -0.65625 0.4375q-0.390625 0.15625 -0.90625 0.15625q-0.421875 0 -0.765625 -0.109375q-0.328125 -0.09375 -0.5625 -0.25q-0.21875 -0.15625 -0.34375 -0.34375q-0.125 -0.1875 -0.1875 -0.453125q-0.0625 -0.265625 -0.0625 -0.625l0 -1.375zm0.453125 0.515625l0 0.8125q0 0.375 0.0625 0.578125q0.078125 0.21875 0.203125 0.359375q0.171875 0.171875 0.46875 0.265625q0.3125 0.109375 0.75 0.109375q0.59375 0 0.90625 -0.203125q0.328125 -0.1875 0.4375 -0.46875q0.078125 -0.203125 0.078125 -0.65625l0 -0.796875l-2.90625 0zm-1.515625 2.8478088l0.34375 0l0 3.09375l-0.34375 0l0 -3.09375zm2.40625 6.166382l-0.140625 0.515625q-0.609375 -0.15625 -0.9375 -0.578125q-0.328125 -0.40625 -0.328125 -1.0q0 -0.625 0.25 -1.015625q0.25 -0.375 0.71875 -0.578125q0.484375 -0.203125 1.03125 -0.203125q0.59375 0 1.03125 0.21875q0.453125 0.234375 0.671875 0.65625q0.234375 0.421875 0.234375 0.921875q0 0.578125 -0.296875 0.96875q-0.28125 0.390625 -0.8125 0.546875l-0.109375 -0.5q0.40625 -0.140625 0.59375 -0.390625q0.203125 -0.25 0.203125 -0.625q0 -0.453125 -0.21875 -0.75q-0.203125 -0.28125 -0.5625 -0.40625q-0.359375 -0.125 -0.734375 -0.125q-0.484375 0 -0.859375 0.140625q-0.359375 0.140625 -0.546875 0.4375q-0.171875 0.3125 -0.171875 0.65625q0 0.421875 0.25 0.71875q0.25 0.296875 0.734375 0.390625zm-1.34375 1.1446838l3.8125 0l0 0.515625l-1.5625 0l0 1.96875l1.5625 0l0 0.515625l-3.8125 0l0 -0.515625l1.796875 0l0 -1.96875l-1.796875 0l0 -0.515625zm3.8125 6.332184l0 0.515625l-2.203125 0q-0.578125 0 -0.921875 -0.140625q-0.328125 -0.125 -0.546875 -0.46875q-0.203125 -0.328125 -0.203125 -0.890625q0 -0.53125 0.171875 -0.875q0.1875 -0.34375 0.53125 -0.484375q0.359375 -0.140625 0.96875 -0.140625l2.203125 0l0 0.5l-2.203125 0q-0.5 0 -0.734375 0.09375q-0.234375 0.09375 -0.359375 0.3125q-0.125 0.234375 -0.125 0.5625q0 0.546875 0.25 0.78125q0.25 0.234375 0.96875 0.234375l2.203125 0zm-3.8125 1.3478088l3.8125 0l0 0.515625l-3.0 2.0l3.0 0l0 0.484375l-3.8125 0l0 -0.515625l3.0 -2.0l-3.0 0l0 -0.484375zm0 3.8321838l3.8125 0l0 0.5l-1.890625 0l1.890625 1.890625l0 0.6875l-1.546875 -1.59375l-2.265625 1.671875l0 -0.671875l1.9375 -1.359375l-0.609375 -0.625l-1.328125 0l0 -0.5zm-1.0625 3.0850525l0.34375 0l0 3.09375l-0.34375 0l0 -3.09375zm2.28125 3.2757568l0.046875 0.484375q-0.28125 0.03125 -0.46875 0.15625q-0.1875 0.125 -0.296875 0.375q-0.109375 0.265625 -0.109375 0.59375q0 0.28125 0.078125 0.5q0.09375 0.234375 0.234375 0.328125q0.15625 0.109375 0.328125 0.109375q0.1875 0 0.3125 -0.109375q0.140625 -0.09375 0.234375 -0.328125q0.0625 -0.15625 0.1875 -0.6875q0.125 -0.515625 0.234375 -0.734375q0.140625 -0.265625 0.34375 -0.40625q0.21875 -0.125 0.484375 -0.125q0.28125 0 0.53125 0.15625q0.265625 0.171875 0.390625 0.484375q0.125 0.3125 0.125 0.703125q0 0.421875 -0.140625 0.734375q-0.125 0.328125 -0.390625 0.5q-0.265625 0.171875 -0.609375 0.1875l-0.03125 -0.484375q0.359375 -0.03125 0.546875 -0.265625q0.1875 -0.21875 0.1875 -0.65625q0 -0.453125 -0.171875 -0.671875q-0.171875 -0.203125 -0.40625 -0.203125q-0.203125 0 -0.328125 0.140625q-0.140625 0.15625 -0.28125 0.765625q-0.140625 0.609375 -0.234375 0.84375q-0.15625 0.328125 -0.390625 0.484375q-0.234375 0.171875 -0.546875 0.171875q-0.3125 0 -0.578125 -0.1875q-0.265625 -0.171875 -0.421875 -0.5q-0.140625 -0.3125 -0.140625 -0.734375q0 -0.515625 0.140625 -0.875q0.15625 -0.34375 0.453125 -0.546875q0.3125 -0.1875 0.6875 -0.203125zm-1.21875 3.819458l3.8125 0l0 0.5l-3.8125 0l0 -0.5zm0 1.0896912l0.46875 0l2.4375 1.953125q0.265625 0.203125 0.453125 0.390625l0 -2.125l0.453125 0l0 2.734375l-0.453125 0l-2.640625 -2.140625l-0.265625 -0.234375l0 2.4375l-0.453125 0l0 -3.015625zm0 3.5671387l3.8125 0l0 2.75l-0.453125 0l0 -2.25l-1.15625 0l0 2.109375l-0.453125 0l0 -2.109375l-1.296875 0l0 2.34375l-0.453125 0l0 -2.84375zm3.109375 4.784149l0.375 0.109375q-0.140625 0.421875 -0.25 0.609375q0.46875 -0.046875 0.640625 -0.0625l0 0.390625q-0.25 -0.015625 -0.640625 -0.0625q0.140625 0.265625 0.25 0.609375l-0.375 0.125q-0.109375 -0.328125 -0.140625 -0.65625q-0.140625 0.15625 -0.484375 0.453125l-0.234375 -0.3125q0.21875 -0.15625 0.5625 -0.359375q-0.359375 -0.1875 -0.5625 -0.34375l0.234375 -0.296875q0.359375 0.296875 0.484375 0.421875q0.0625 -0.328125 0.140625 -0.625zm-3.109375 3.772583l3.8125 0l0 0.5l-3.359375 0l0 1.875l-0.453125 0l0 -2.375zm0 2.5726318l3.8125 1.453125l0 0.546875l-3.8125 1.5625l0 -0.578125l1.15625 -0.4375l0 -1.59375l-1.15625 -0.421875l0 -0.53125zm1.5625 1.09375l0 1.296875l1.0625 -0.40625q0.484375 -0.171875 0.78125 -0.265625q-0.359375 -0.078125 -0.71875 -0.203125l-1.125 -0.421875zm-1.5625 2.866333l3.8125 0l0 0.515625l-3.0 2.0l3.0 0l0 0.484375l-3.8125 0l0 -0.515625l3.0 -2.0l-3.0 0l0 -0.484375zm0 3.8478088l3.8125 0l0 1.3125q0 0.453125 -0.046875 0.6875q-0.078125 0.328125 -0.28125 0.5625q-0.25 0.296875 -0.65625 0.4375q-0.390625 0.15625 -0.90625 0.15625q-0.421875 0 -0.765625 -0.109375q-0.328125 -0.09375 -0.5625 -0.25q-0.21875 -0.15625 -0.34375 -0.34375q-0.125 -0.1875 -0.1875 -0.453125q-0.0625 -0.265625 -0.0625 -0.625l0 -1.375zm0.453125 0.515625l0 0.8125q0 0.375 0.0625 0.578125q0.078125 0.21875 0.203125 0.359375q0.171875 0.171875 0.46875 0.265625q0.3125 0.109375 0.75 0.109375q0.59375 0 0.90625 -0.203125q0.328125 -0.1875 0.4375 -0.46875q0.078125 -0.203125 0.078125 -0.65625l0 -0.796875l-2.90625 0zm-1.515625 2.8478088l0.34375 0l0 3.09375l-0.34375 0l0 -3.09375zm2.40625 6.166382l-0.140625 0.515625q-0.609375 -0.15625 -0.9375 -0.578125q-0.328125 -0.40625 -0.328125 -1.0q0 -0.625 0.25 -1.015625q0.25 -0.375 0.71875 -0.578125q0.484375 -0.203125 1.03125 -0.203125q0.59375 0 1.03125 0.21875q0.453125 0.234375 0.671875 0.65625q0.234375 0.421875 0.234375 0.921875q0 0.578125 -0.296875 0.96875q-0.28125 0.390625 -0.8125 0.546875l-0.109375 -0.5q0.40625 -0.140625 0.59375 -0.390625q0.203125 -0.25 0.203125 -0.625q0 -0.453125 -0.21875 -0.75q-0.203125 -0.28125 -0.5625 -0.40625q-0.359375 -0.125 -0.734375 -0.125q-0.484375 0 -0.859375 0.140625q-0.359375 0.140625 -0.546875 0.4375q-0.171875 0.3125 -0.171875 0.65625q0 0.421875 0.25 0.71875q0.25 0.296875 0.734375 0.390625zm-1.34375 1.1446838l3.8125 0l0 0.515625l-1.5625 0l0 1.96875l1.5625 0l0 0.515625l-3.8125 0l0 -0.515625l1.796875 0l0 -1.96875l-1.796875 0l0 -0.515625zm3.8125 6.332184l0 0.515625l-2.203125 0q-0.578125 0 -0.921875 -0.140625q-0.328125 -0.125 -0.546875 -0.46875q-0.203125 -0.328125 -0.203125 -0.890625q0 -0.53125 0.171875 -0.875q0.1875 -0.34375 0.53125 -0.484375q0.359375 -0.140625 0.96875 -0.140625l2.203125 0l0 0.5l-2.203125 0q-0.5 0 -0.734375 0.09375q-0.234375 0.09375 -0.359375 0.3125q-0.125 0.234375 -0.125 0.5625q0 0.546875 0.25 0.78125q0.25 0.234375 0.96875 0.234375l2.203125 0zm-3.8125 1.3478088l3.8125 0l0 0.515625l-3.0 2.0l3.0 0l0 0.484375l-3.8125 0l0 -0.515625l3.0 -2.0l-3.0 0l0 -0.484375zm0 3.8321838l3.8125 0l0 0.5l-1.890625 0l1.890625 1.890625l0 0.6875l-1.546875 -1.59375l-2.265625 1.671875l0 -0.671875l1.9375 -1.359375l-0.609375 -0.625l-1.328125 0l0 -0.5zm1.21875 3.3975525l0.046875 0.484375q-0.28125 0.03125 -0.46875 0.15625q-0.1875 0.125 -0.296875 0.375q-0.109375 0.265625 -0.109375 0.59375q0 0.28125 0.078125 0.5q0.09375 0.234375 0.234375 0.328125q0.15625 0.109375 0.328125 0.109375q0.1875 0 0.3125 -0.109375q0.140625 -0.09375 0.234375 -0.328125q0.0625 -0.15625 0.1875 -0.6875q0.125 -0.515625 0.234375 -0.734375q0.140625 -0.265625 0.34375 -0.40625q0.21875 -0.125 0.484375 -0.125q0.28125 0 0.53125 0.15625q0.265625 0.171875 0.390625 0.484375q0.125 0.3125 0.125 0.703125q0 0.421875 -0.140625 0.734375q-0.125 0.328125 -0.390625 0.5q-0.265625 0.171875 -0.609375 0.1875l-0.03125 -0.484375q0.359375 -0.03125 0.546875 -0.265625q0.1875 -0.21875 0.1875 -0.65625q0 -0.453125 -0.171875 -0.671875q-0.171875 -0.203125 -0.40625 -0.203125q-0.203125 0 -0.328125 0.140625q-0.140625 0.15625 -0.28125 0.765625q-0.140625 0.609375 -0.234375 0.84375q-0.15625 0.328125 -0.390625 0.484375q-0.234375 0.171875 -0.546875 0.171875q-0.3125 0 -0.578125 -0.1875q-0.265625 -0.171875 -0.421875 -0.5q-0.140625 -0.3125 -0.140625 -0.734375q0 -0.515625 0.140625 -0.875q0.15625 -0.34375 0.453125 -0.546875q0.3125 -0.1875 0.6875 -0.203125zm1.03125 7.612274l0 -2.515625l0.421875 0l0 2.515625l-0.421875 0zm-1.171875 0l0 -2.515625l0.4375 0l0 2.515625l-0.4375 0zm-0.203125 2.0762634l0.046875 0.4375q-0.3125 0.0625 -0.46875 0.21875q-0.140625 0.171875 -0.140625 0.421875q0 0.21875 0.09375 0.375q0.109375 0.171875 0.265625 0.265625q0.171875 0.109375 0.453125 0.171875q0.28125 0.078125 0.578125 0.078125q0.03125 0 0.09375 0q-0.21875 -0.140625 -0.359375 -0.390625q-0.140625 -0.234375 -0.140625 -0.53125q0 -0.46875 0.34375 -0.796875q0.34375 -0.328125 0.90625 -0.328125q0.578125 0 0.921875 0.34375q0.359375 0.34375 0.359375 0.859375q0 0.375 -0.203125 0.671875q-0.203125 0.3125 -0.578125 0.46875q-0.359375 0.171875 -1.0625 0.171875q-0.734375 0 -1.171875 -0.171875q-0.421875 -0.15625 -0.65625 -0.46875q-0.21875 -0.3125 -0.21875 -0.734375q0 -0.4375 0.25 -0.734375q0.25 -0.28125 0.6875 -0.328125zm1.6875 1.90625q0.40625 0 0.640625 -0.21875q0.234375 -0.203125 0.234375 -0.5q0 -0.3125 -0.25 -0.546875q-0.25 -0.234375 -0.65625 -0.234375q-0.375 0 -0.609375 0.21875q-0.21875 0.21875 -0.21875 0.546875q0 0.328125 0.21875 0.53125q0.234375 0.203125 0.640625 0.203125zm0.3125 3.4163818l-0.03125 -0.46875q0.28125 -0.0625 0.40625 -0.171875q0.1875 -0.203125 0.1875 -0.46875q0 -0.234375 -0.125 -0.40625q-0.15625 -0.21875 -0.46875 -0.34375q-0.296875 -0.125 -0.875 -0.125q0.25 0.15625 0.375 0.40625q0.125 0.25 0.125 0.515625q0 0.46875 -0.34375 0.796875q-0.34375 0.328125 -0.890625 0.328125q-0.359375 0 -0.671875 -0.15625q-0.296875 -0.15625 -0.46875 -0.421875q-0.15625 -0.265625 -0.15625 -0.609375q0 -0.59375 0.421875 -0.96875q0.4375 -0.359375 1.421875 -0.359375q1.109375 0 1.609375 0.40625q0.4375 0.359375 0.4375 0.953125q0 0.453125 -0.25 0.734375q-0.25 0.296875 -0.703125 0.359375zm-1.640625 -1.921875q-0.234375 0 -0.46875 0.09375q-0.21875 0.109375 -0.34375 0.296875q-0.109375 0.1875 -0.109375 0.390625q0 0.296875 0.234375 0.5q0.25 0.21875 0.65625 0.21875q0.40625 0 0.625 -0.21875q0.234375 -0.203125 0.234375 -0.515625q0 -0.3125 -0.234375 -0.546875q-0.21875 -0.21875 -0.59375 -0.21875zm1.875 3.881073l0.375 0.109375q-0.140625 0.421875 -0.25 0.609375q0.46875 -0.046875 0.640625 -0.0625l0 0.390625q-0.25 -0.015625 -0.640625 -0.0625q0.140625 0.265625 0.25 0.609375l-0.375 0.125q-0.109375 -0.328125 -0.140625 -0.65625q-0.140625 0.15625 -0.484375 0.453125l-0.234375 -0.3125q0.21875 -0.15625 0.5625 -0.359375q-0.359375 -0.1875 -0.5625 -0.34375l0.234375 -0.296875q0.359375 0.296875 0.484375 0.421875q0.0625 -0.328125 0.140625 -0.625zm-2.109375 3.600708l0.0625 0.46875q-0.390625 0.078125 -0.578125 0.265625q-0.171875 0.203125 -0.171875 0.484375q0 0.328125 0.234375 0.546875q0.234375 0.234375 0.5625 0.234375q0.328125 0 0.53125 -0.21875q0.21875 -0.203125 0.21875 -0.515625q0 -0.140625 -0.046875 -0.34375l0.40625 0.0625q0 0.046875 0 0.078125q0 0.296875 0.15625 0.53125q0.15625 0.234375 0.46875 0.234375q0.265625 0 0.421875 -0.171875q0.171875 -0.171875 0.171875 -0.453125q0 -0.265625 -0.171875 -0.453125q-0.171875 -0.171875 -0.515625 -0.234375l0.09375 -0.46875q0.46875 0.09375 0.71875 0.390625q0.265625 0.3125 0.265625 0.765625q0 0.3125 -0.140625 0.5625q-0.125 0.265625 -0.359375 0.40625q-0.234375 0.140625 -0.484375 0.140625q-0.25 0 -0.453125 -0.140625q-0.203125 -0.125 -0.328125 -0.375q-0.078125 0.328125 -0.328125 0.515625q-0.234375 0.1875 -0.609375 0.1875q-0.5 0 -0.84375 -0.359375q-0.34375 -0.359375 -0.34375 -0.921875q0 -0.5 0.296875 -0.84375q0.296875 -0.328125 0.765625 -0.375z" fill-rule="nonzero"/><path fill="#000000" fill-opacity="0.0" d="m523.7769 369.8937l18.803162 -23.84253" fill-rule="evenodd"/><path stroke="#595959" stroke-width="1.0" stroke-linejoin="round" stroke-linecap="butt" d="m523.7769 369.8937l15.0877075 -19.131317" fill-rule="evenodd"/><path fill="#595959" stroke="#595959" stroke-width="1.0" stroke-linecap="butt" d="m540.16156 351.78522l1.5132446 -4.586151l-4.1071167 2.5404968z" fill-rule="evenodd"/><path fill="#000000" fill-opacity="0.0" d="m494.8643 360.44357l45.763763 0l0 25.858276l-45.763763 0z" fill-rule="evenodd"/><path fill="#000000" d="m505.1143 375.68857q-0.390625 -0.5 -0.65625 -1.140625q-0.265625 -0.65625 -0.265625 -1.359375q0 -0.625 0.1875 -1.1875q0.234375 -0.65625 0.734375 -1.3125l0.328125 0q-0.3125 0.53125 -0.40625 0.765625q-0.171875 0.359375 -0.25 0.75q-0.125 0.484375 -0.125 0.984375q0 1.25 0.78125 2.5l-0.328125 0zm2.2430725 -1.125l0 -0.90625l-1.65625 0l0 -0.4375l1.75 -2.46875l0.375 0l0 2.46875l0.515625 0l0 0.4375l-0.515625 0l0 0.90625l-0.46875 0zm0 -1.34375l0 -1.71875l-1.1875 1.71875l1.1875 0zm2.1820068 -0.71875q-0.28125 -0.109375 -0.421875 -0.3125q-0.140625 -0.203125 -0.140625 -0.46875q0 -0.421875 0.296875 -0.703125q0.296875 -0.28125 0.796875 -0.28125q0.5 0 0.796875 0.296875q0.3125 0.28125 0.3125 0.703125q0 0.265625 -0.140625 0.46875q-0.140625 0.1875 -0.421875 0.296875q0.34375 0.109375 0.53125 0.375q0.1875 0.25 0.1875 0.59375q0 0.5 -0.359375 0.828125q-0.34375 0.328125 -0.90625 0.328125q-0.5625 0 -0.90625 -0.328125q-0.34375 -0.34375 -0.34375 -0.84375q0 -0.359375 0.1875 -0.609375q0.1875 -0.265625 0.53125 -0.34375zm-0.09375 -0.796875q0 0.265625 0.171875 0.4375q0.1875 0.171875 0.453125 0.171875q0.28125 0 0.453125 -0.171875q0.171875 -0.171875 0.171875 -0.40625q0 -0.265625 -0.1875 -0.4375q-0.171875 -0.171875 -0.4375 -0.171875q-0.265625 0 -0.453125 0.171875q-0.171875 0.171875 -0.171875 0.40625zm-0.140625 1.765625q0 0.1875 0.09375 0.375q0.09375 0.1875 0.28125 0.296875q0.1875 0.109375 0.40625 0.109375q0.328125 0 0.546875 -0.21875q0.21875 -0.21875 0.21875 -0.546875q0 -0.34375 -0.234375 -0.5625q-0.21875 -0.21875 -0.546875 -0.21875q-0.34375 0 -0.5625 0.21875q-0.203125 0.21875 -0.203125 0.546875zm2.7288818 1.09375l0 -0.53125l0.53125 0l0 0.53125q0 0.296875 -0.109375 0.46875q-0.09375 0.1875 -0.3125 0.28125l-0.140625 -0.203125q0.15625 -0.0625 0.21875 -0.1875q0.078125 -0.125 0.078125 -0.359375l-0.265625 0zm2.6637573 -1.140625l0 -0.46875l1.4375 0l0 0.46875l-1.4375 0zm3.321228 1.140625l0 -0.90625l-1.65625 0l0 -0.4375l1.75 -2.46875l0.375 0l0 2.46875l0.515625 0l0 0.4375l-0.515625 0l0 0.90625l-0.46875 0zm0 -1.34375l0 -1.71875l-1.1875 1.71875l1.1875 0zm2.1820068 -0.71875q-0.28125 -0.109375 -0.421875 -0.3125q-0.140625 -0.203125 -0.140625 -0.46875q0 -0.421875 0.296875 -0.703125q0.296875 -0.28125 0.796875 -0.28125q0.5 0 0.796875 0.296875q0.3125 0.28125 0.3125 0.703125q0 0.265625 -0.140625 0.46875q-0.140625 0.1875 -0.421875 0.296875q0.34375 0.109375 0.53125 0.375q0.1875 0.25 0.1875 0.59375q0 0.5 -0.359375 0.828125q-0.34375 0.328125 -0.90625 0.328125q-0.5625 0 -0.90625 -0.328125q-0.34375 -0.34375 -0.34375 -0.84375q0 -0.359375 0.1875 -0.609375q0.1875 -0.265625 0.53125 -0.34375zm-0.09375 -0.796875q0 0.265625 0.171875 0.4375q0.1875 0.171875 0.453125 0.171875q0.28125 0 0.453125 -0.171875q0.171875 -0.171875 0.171875 -0.40625q0 -0.265625 -0.1875 -0.4375q-0.171875 -0.171875 -0.4375 -0.171875q-0.265625 0 -0.453125 0.171875q-0.171875 0.171875 -0.171875 0.40625zm-0.140625 1.765625q0 0.1875 0.09375 0.375q0.09375 0.1875 0.28125 0.296875q0.1875 0.109375 0.40625 0.109375q0.328125 0 0.546875 -0.21875q0.21875 -0.21875 0.21875 -0.546875q0 -0.34375 -0.234375 -0.5625q-0.21875 -0.21875 -0.546875 -0.21875q-0.34375 0 -0.5625 0.21875q-0.203125 0.21875 -0.203125 0.546875zm2.9163818 2.21875l-0.328125 0q0.765625 -1.25 0.765625 -2.5q0 -0.5 -0.109375 -0.96875q-0.078125 -0.390625 -0.25 -0.75q-0.09375 -0.234375 -0.40625 -0.78125l0.328125 0q0.484375 0.65625 0.71875 1.3125q0.203125 0.5625 0.203125 1.1875q0 0.703125 -0.265625 1.359375q-0.265625 0.640625 -0.65625 1.140625z" fill-rule="nonzero"/><path fill="#000000" fill-opacity="0.0" d="m422.08478 369.0709l45.763763 0l0 29.070862l-45.763763 0z" fill-rule="evenodd"/><path fill="#000000" d="m432.95978 387.4384q-0.578125 -0.734375 -0.984375 -1.71875q-0.40625 -0.984375 -0.40625 -2.046875q0 -0.921875 0.296875 -1.78125q0.359375 -0.984375 1.09375 -1.96875l0.5 0q-0.46875 0.8125 -0.625 1.15625q-0.234375 0.546875 -0.375 1.125q-0.171875 0.734375 -0.171875 1.46875q0 1.890625 1.171875 3.765625l-0.5 0zm1.1171875 -4.515625q0 -1.015625 0.203125 -1.625q0.21875 -0.625 0.625 -0.953125q0.421875 -0.34375 1.046875 -0.34375q0.453125 0 0.796875 0.1875q0.359375 0.1875 0.578125 0.53125q0.234375 0.34375 0.359375 0.859375q0.125 0.5 0.125 1.34375q0 1.015625 -0.203125 1.640625q-0.203125 0.609375 -0.625 0.953125q-0.40625 0.328125 -1.03125 0.328125q-0.828125 0 -1.296875 -0.59375q-0.578125 -0.71875 -0.578125 -2.328125zm0.734375 0q0 1.40625 0.328125 1.875q0.328125 0.46875 0.8125 0.46875q0.484375 0 0.8125 -0.46875q0.328125 -0.46875 0.328125 -1.875q0 -1.40625 -0.328125 -1.875q-0.328125 -0.46875 -0.828125 -0.46875q-0.484375 0 -0.765625 0.40625q-0.359375 0.53125 -0.359375 1.9375zm4.1054688 2.828125l0 -0.796875l0.796875 0l0 0.796875q0 0.4375 -0.15625 0.703125q-0.15625 0.28125 -0.5 0.4375l-0.1875 -0.3125q0.21875 -0.09375 0.3125 -0.28125q0.109375 -0.1875 0.125 -0.546875l-0.390625 0zm4.0546875 -2.828125q0 -1.015625 0.203125 -1.625q0.21875 -0.625 0.625 -0.953125q0.421875 -0.34375 1.046875 -0.34375q0.453125 0 0.796875 0.1875q0.359375 0.1875 0.578125 0.53125q0.234375 0.34375 0.359375 0.859375q0.125 0.5 0.125 1.34375q0 1.015625 -0.203125 1.640625q-0.203125 0.609375 -0.625 0.953125q-0.40625 0.328125 -1.03125 0.328125q-0.828125 0 -1.296875 -0.59375q-0.578125 -0.71875 -0.578125 -2.328125zm0.734375 0q0 1.40625 0.328125 1.875q0.328125 0.46875 0.8125 0.46875q0.484375 0 0.8125 -0.46875q0.328125 -0.46875 0.328125 -1.875q0 -1.40625 -0.328125 -1.875q-0.328125 -0.46875 -0.828125 -0.46875q-0.484375 0 -0.765625 0.40625q-0.359375 0.53125 -0.359375 1.9375zm4.3710938 4.515625l-0.5 0q1.171875 -1.875 1.171875 -3.765625q0 -0.734375 -0.171875 -1.453125q-0.125 -0.578125 -0.375 -1.125q-0.140625 -0.34375 -0.625 -1.171875l0.5 0q0.734375 0.984375 1.09375 1.96875q0.296875 0.859375 0.296875 1.78125q0 1.0625 -0.40625 2.046875q-0.40625 0.984375 -0.984375 1.71875z" fill-rule="nonzero"/><path fill="#0000ff" d="m477.55905 408.61548l0 0c0 -1.3480835 1.092865 -2.4409485 2.4409485 -2.4409485l0 0c0.6473694 0 1.2682495 0.25717163 1.7260132 0.7149353c0.45776367 0.45776367 0.7149353 1.0786438 0.7149353 1.7260132l0 0c0 1.348114 -1.092865 2.4409485 -2.4409485 2.4409485l0 0c-1.3480835 0 -2.4409485 -1.0928345 -2.4409485 -2.4409485z" fill-rule="evenodd"/><path fill="#000000" fill-opacity="0.0" d="m450.65195 388.71625l29.29132 19.968506" fill-rule="evenodd"/><path stroke="#595959" stroke-width="1.0" stroke-linejoin="round" stroke-linecap="butt" d="m450.65195 388.71625l24.33374 16.588837" fill-rule="evenodd"/><path fill="#595959" stroke="#595959" stroke-width="1.0" stroke-linecap="butt" d="m474.0553 406.66983l4.6800537 1.1914673l-2.819275 -3.92099z" fill-rule="evenodd"/><path fill="#000000" fill-opacity="0.0" d="m423.38922 430.5617l45.763794 0l0 25.858246l-45.763794 0z" fill-rule="evenodd"/><path fill="#000000" d="m433.63922 445.8067q-0.390625 -0.5 -0.65625 -1.140625q-0.265625 -0.65625 -0.265625 -1.359375q0 -0.625 0.1875 -1.1875q0.234375 -0.65625 0.734375 -1.3125l0.328125 0q-0.3125 0.53125 -0.40625 0.765625q-0.171875 0.359375 -0.25 0.75q-0.125 0.484375 -0.125 0.984375q0 1.25 0.78125 2.5l-0.328125 0zm0.6961975 -2.265625l0 -0.46875l1.4375 0l0 0.46875l-1.4375 0zm3.321167 1.140625l0 -0.90625l-1.65625 0l0 -0.4375l1.75 -2.46875l0.375 0l0 2.46875l0.515625 0l0 0.4375l-0.515625 0l0 0.90625l-0.46875 0zm0 -1.34375l0 -1.71875l-1.1875 1.71875l1.1875 0zm2.1820068 -0.71875q-0.28125 -0.109375 -0.421875 -0.3125q-0.140625 -0.203125 -0.140625 -0.46875q0 -0.421875 0.296875 -0.703125q0.296875 -0.28125 0.796875 -0.28125q0.5 0 0.796875 0.296875q0.3125 0.28125 0.3125 0.703125q0 0.265625 -0.140625 0.46875q-0.140625 0.1875 -0.421875 0.296875q0.34375 0.109375 0.53125 0.375q0.1875 0.25 0.1875 0.59375q0 0.5 -0.359375 0.828125q-0.34375 0.328125 -0.90625 0.328125q-0.5625 0 -0.90625 -0.328125q-0.34375 -0.34375 -0.34375 -0.84375q0 -0.359375 0.1875 -0.609375q0.1875 -0.265625 0.53125 -0.34375zm-0.09375 -0.796875q0 0.265625 0.171875 0.4375q0.1875 0.171875 0.453125 0.171875q0.28125 0 0.453125 -0.171875q0.171875 -0.171875 0.171875 -0.40625q0 -0.265625 -0.1875 -0.4375q-0.171875 -0.171875 -0.4375 -0.171875q-0.265625 0 -0.453125 0.171875q-0.171875 0.171875 -0.171875 0.40625zm-0.140625 1.765625q0 0.1875 0.09375 0.375q0.09375 0.1875 0.28125 0.296875q0.1875 0.109375 0.40625 0.109375q0.328125 0 0.546875 -0.21875q0.21875 -0.21875 0.21875 -0.546875q0 -0.34375 -0.234375 -0.5625q-0.21875 -0.21875 -0.546875 -0.21875q-0.34375 0 -0.5625 0.21875q-0.203125 0.21875 -0.203125 0.546875zm2.7288818 1.09375l0 -0.53125l0.53125 0l0 0.53125q0 0.296875 -0.109375 0.46875q-0.09375 0.1875 -0.3125 0.28125l-0.140625 -0.203125q0.15625 -0.0625 0.21875 -0.1875q0.078125 -0.125 0.078125 -0.359375l-0.265625 0zm4.210663 0l0 -0.90625l-1.65625 0l0 -0.4375l1.75 -2.46875l0.375 0l0 2.46875l0.515625 0l0 0.4375l-0.515625 0l0 0.90625l-0.46875 0zm0 -1.34375l0 -1.71875l-1.1875 1.71875l1.1875 0zm2.1820068 -0.71875q-0.28125 -0.109375 -0.421875 -0.3125q-0.140625 -0.203125 -0.140625 -0.46875q0 -0.421875 0.296875 -0.703125q0.296875 -0.28125 0.796875 -0.28125q0.5 0 0.796875 0.296875q0.3125 0.28125 0.3125 0.703125q0 0.265625 -0.140625 0.46875q-0.140625 0.1875 -0.421875 0.296875q0.34375 0.109375 0.53125 0.375q0.1875 0.25 0.1875 0.59375q0 0.5 -0.359375 0.828125q-0.34375 0.328125 -0.90625 0.328125q-0.5625 0 -0.90625 -0.328125q-0.34375 -0.34375 -0.34375 -0.84375q0 -0.359375 0.1875 -0.609375q0.1875 -0.265625 0.53125 -0.34375zm-0.09375 -0.796875q0 0.265625 0.171875 0.4375q0.1875 0.171875 0.453125 0.171875q0.28125 0 0.453125 -0.171875q0.171875 -0.171875 0.171875 -0.40625q0 -0.265625 -0.1875 -0.4375q-0.171875 -0.171875 -0.4375 -0.171875q-0.265625 0 -0.453125 0.171875q-0.171875 0.171875 -0.171875 0.40625zm-0.140625 1.765625q0 0.1875 0.09375 0.375q0.09375 0.1875 0.28125 0.296875q0.1875 0.109375 0.40625 0.109375q0.328125 0 0.546875 -0.21875q0.21875 -0.21875 0.21875 -0.546875q0 -0.34375 -0.234375 -0.5625q-0.21875 -0.21875 -0.546875 -0.21875q-0.34375 0 -0.5625 0.21875q-0.203125 0.21875 -0.203125 0.546875zm2.9163818 2.21875l-0.328125 0q0.765625 -1.25 0.765625 -2.5q0 -0.5 -0.109375 -0.96875q-0.078125 -0.390625 -0.25 -0.75q-0.09375 -0.234375 -0.40625 -0.78125l0.328125 0q0.484375 0.65625 0.71875 1.3125q0.203125 0.5625 0.203125 1.1875q0 0.703125 -0.265625 1.359375q-0.265625 0.640625 -0.65625 1.140625z" fill-rule="nonzero"/><path fill="#000000" fill-opacity="0.0" d="m435.91077 446.89633l-18.614166 24.440948" fill-rule="evenodd"/><path stroke="#595959" stroke-width="1.0" stroke-linejoin="round" stroke-linecap="butt" d="m435.91077 446.89633l-14.978851 19.667633" fill-rule="evenodd"/><path fill="#595959" stroke="#595959" stroke-width="1.0" stroke-linecap="butt" d="m419.6179 465.5632l-1.4355469 4.6110535l4.0635986 -2.6095276z" fill-rule="evenodd"/><path fill="#000000" fill-opacity="0.0" d="m427.5861 114.48295l45.763763 0l0 25.858269l-45.763763 0z" fill-rule="evenodd"/><path fill="#000000" d="m437.8361 129.72795q-0.390625 -0.5 -0.65625 -1.140625q-0.265625 -0.65625 -0.265625 -1.359375q0 -0.625 0.1875 -1.1875q0.234375 -0.65625 0.734375 -1.3125l0.328125 0q-0.3125 0.53125 -0.40625 0.765625q-0.171875 0.359375 -0.25 0.75q-0.125 0.484375 -0.125 0.984375q0 1.25 0.78125 2.5l-0.328125 0zm0.696167 -2.265625l0 -0.46875l1.4375 0l0 0.46875l-1.4375 0zm3.3211975 1.140625l0 -0.90625l-1.65625 0l0 -0.4375l1.75 -2.46875l0.375 0l0 2.46875l0.515625 0l0 0.4375l-0.515625 0l0 0.90625l-0.46875 0zm0 -1.34375l0 -1.71875l-1.1875 1.71875l1.1875 0zm2.1820068 -0.71875q-0.28125 -0.109375 -0.421875 -0.3125q-0.140625 -0.203125 -0.140625 -0.46875q0 -0.421875 0.296875 -0.703125q0.296875 -0.28125 0.796875 -0.28125q0.5 0 0.796875 0.296875q0.3125 0.28125 0.3125 0.703125q0 0.265625 -0.140625 0.46875q-0.140625 0.1875 -0.421875 0.296875q0.34375 0.109375 0.53125 0.375q0.1875 0.25 0.1875 0.59375q0 0.5 -0.359375 0.828125q-0.34375 0.328125 -0.90625 0.328125q-0.5625 0 -0.90625 -0.328125q-0.34375 -0.34375 -0.34375 -0.84375q0 -0.359375 0.1875 -0.609375q0.1875 -0.265625 0.53125 -0.34375zm-0.09375 -0.796875q0 0.265625 0.171875 0.4375q0.1875 0.171875 0.453125 0.171875q0.28125 0 0.453125 -0.171875q0.171875 -0.171875 0.171875 -0.40625q0 -0.265625 -0.1875 -0.4375q-0.171875 -0.171875 -0.4375 -0.171875q-0.265625 0 -0.453125 0.171875q-0.171875 0.171875 -0.171875 0.40625zm-0.140625 1.765625q0 0.1875 0.09375 0.375q0.09375 0.1875 0.28125 0.296875q0.1875 0.109375 0.40625 0.109375q0.328125 0 0.546875 -0.21875q0.21875 -0.21875 0.21875 -0.546875q0 -0.34375 -0.234375 -0.5625q-0.21875 -0.21875 -0.546875 -0.21875q-0.34375 0 -0.5625 0.21875q-0.203125 0.21875 -0.203125 0.546875zm2.7288818 1.09375l0 -0.53125l0.53125 0l0 0.53125q0 0.296875 -0.109375 0.46875q-0.09375 0.1875 -0.3125 0.28125l-0.140625 -0.203125q0.15625 -0.0625 0.21875 -0.1875q0.078125 -0.125 0.078125 -0.359375l-0.265625 0zm2.6637878 -1.140625l0 -0.46875l1.4375 0l0 0.46875l-1.4375 0zm4.289917 0.6875l0 0.453125l-2.53125 0q0 -0.171875 0.0625 -0.328125q0.09375 -0.25 0.296875 -0.5q0.21875 -0.25 0.625 -0.578125q0.625 -0.515625 0.84375 -0.8125q0.21875 -0.296875 0.21875 -0.5625q0 -0.28125 -0.203125 -0.46875q-0.203125 -0.1875 -0.515625 -0.1875q-0.34375 0 -0.546875 0.203125q-0.203125 0.203125 -0.203125 0.5625l-0.484375 -0.046875q0.046875 -0.546875 0.359375 -0.828125q0.328125 -0.28125 0.875 -0.28125q0.546875 0 0.859375 0.3125q0.328125 0.296875 0.328125 0.75q0 0.21875 -0.09375 0.453125q-0.09375 0.21875 -0.3125 0.46875q-0.203125 0.234375 -0.71875 0.65625q-0.421875 0.359375 -0.546875 0.484375q-0.109375 0.125 -0.1875 0.25l1.875 0zm1.9945068 0.453125l0 -0.90625l-1.65625 0l0 -0.4375l1.75 -2.46875l0.375 0l0 2.46875l0.515625 0l0 0.4375l-0.515625 0l0 0.90625l-0.46875 0zm0 -1.34375l0 -1.71875l-1.1875 1.71875l1.1875 0zm1.4632568 -0.53125q0 -0.6875 0.140625 -1.09375q0.140625 -0.40625 0.40625 -0.625q0.28125 -0.234375 0.703125 -0.234375q0.296875 0 0.53125 0.125q0.234375 0.125 0.375 0.359375q0.15625 0.234375 0.234375 0.5625q0.09375 0.328125 0.09375 0.90625q0 0.671875 -0.140625 1.078125q-0.125 0.40625 -0.40625 0.640625q-0.265625 0.21875 -0.6875 0.21875q-0.5625 0 -0.875 -0.390625q-0.375 -0.484375 -0.375 -1.546875zm0.484375 0q0 0.9375 0.21875 1.25q0.21875 0.3125 0.546875 0.3125q0.3125 0 0.53125 -0.3125q0.234375 -0.3125 0.234375 -1.25q0 -0.953125 -0.234375 -1.25q-0.21875 -0.3125 -0.546875 -0.3125q-0.3125 0 -0.515625 0.265625q-0.234375 0.359375 -0.234375 1.296875zm2.9163818 3.0l-0.328125 0q0.765625 -1.25 0.765625 -2.5q0 -0.5 -0.109375 -0.96875q-0.078125 -0.390625 -0.25 -0.75q-0.09375 -0.234375 -0.40625 -0.78125l0.328125 0q0.484375 0.65625 0.71875 1.3125q0.203125 0.5625 0.203125 1.1875q0 0.703125 -0.265625 1.359375q-0.265625 0.640625 -0.65625 1.140625z" fill-rule="nonzero"/><path fill="#000000" fill-opacity="0.0" d="m440.3727 123.55774l-23.086609 -28.314957" fill-rule="evenodd"/><path stroke="#595959" stroke-width="1.0" stroke-linejoin="round" stroke-linecap="butt" d="m440.3727 123.55774l-19.295074 -23.664764" fill-rule="evenodd"/><path fill="#595959" stroke="#595959" stroke-width="1.0" stroke-linecap="butt" d="m422.35776 98.849205l-4.1478577 -2.473404l1.5875854 4.560936z" fill-rule="evenodd"/><path fill="#000000" fill-opacity="0.0" d="m411.47693 228.67381l112.8819 0l0 29.070877l-112.8819 0z" fill-rule="evenodd"/><path fill="#000000" d="m420.99255 245.35382l0 -5.734375l0.703125 0l0 5.734375l-0.703125 0zm4.4960938 -0.515625q-0.390625 0.328125 -0.75 0.46875q-0.359375 0.140625 -0.78125 0.140625q-0.671875 0 -1.046875 -0.328125q-0.359375 -0.34375 -0.359375 -0.859375q0 -0.3125 0.125 -0.5625q0.140625 -0.25 0.359375 -0.390625q0.234375 -0.15625 0.515625 -0.234375q0.203125 -0.0625 0.625 -0.109375q0.859375 -0.109375 1.25 -0.25q0.015625 -0.140625 0.015625 -0.171875q0 -0.4375 -0.203125 -0.609375q-0.265625 -0.234375 -0.796875 -0.234375q-0.5 0 -0.734375 0.171875q-0.234375 0.171875 -0.359375 0.609375l-0.6875 -0.09375q0.09375 -0.4375 0.3125 -0.703125q0.21875 -0.28125 0.625 -0.421875q0.40625 -0.15625 0.9375 -0.15625q0.53125 0 0.859375 0.125q0.34375 0.125 0.5 0.328125q0.15625 0.1875 0.21875 0.46875q0.03125 0.1875 0.03125 0.65625l0 0.9375q0 0.96875 0.046875 1.234375q0.046875 0.265625 0.171875 0.5l-0.734375 0q-0.109375 -0.21875 -0.140625 -0.515625zm-0.0625 -1.5625q-0.375 0.15625 -1.140625 0.265625q-0.4375 0.0625 -0.625 0.140625q-0.171875 0.078125 -0.265625 0.234375q-0.09375 0.140625 -0.09375 0.328125q0 0.28125 0.203125 0.46875q0.21875 0.1875 0.625 0.1875q0.40625 0 0.71875 -0.171875q0.328125 -0.1875 0.46875 -0.5q0.109375 -0.234375 0.109375 -0.703125l0 -0.25zm1.8085938 2.078125l0 -4.15625l0.625 0l0 0.59375q0.46875 -0.6875 1.328125 -0.6875q0.375 0 0.6875 0.140625q0.3125 0.140625 0.46875 0.359375q0.15625 0.21875 0.21875 0.515625q0.046875 0.1875 0.046875 0.6875l0 2.546875l-0.703125 0l0 -2.53125q0 -0.421875 -0.09375 -0.625q-0.078125 -0.21875 -0.296875 -0.34375q-0.203125 -0.140625 -0.484375 -0.140625q-0.4375 0 -0.765625 0.296875q-0.328125 0.28125 -0.328125 1.078125l0 2.265625l-0.703125 0zm7.1367188 0l0 -0.53125q-0.390625 0.625 -1.15625 0.625q-0.5 0 -0.921875 -0.265625q-0.40625 -0.28125 -0.640625 -0.765625q-0.21875 -0.5 -0.21875 -1.140625q0 -0.609375 0.203125 -1.109375q0.203125 -0.515625 0.609375 -0.78125q0.421875 -0.28125 0.9375 -0.28125q0.375 0 0.65625 0.171875q0.296875 0.15625 0.484375 0.40625l0 -2.0625l0.703125 0l0 5.734375l-0.65625 0zm-2.21875 -2.078125q0 0.796875 0.328125 1.203125q0.34375 0.390625 0.796875 0.390625q0.46875 0 0.78125 -0.375q0.328125 -0.375 0.328125 -1.15625q0 -0.84375 -0.328125 -1.234375q-0.328125 -0.40625 -0.8125 -0.40625q-0.46875 0 -0.78125 0.390625q-0.3125 0.375 -0.3125 1.1875zm4.0429688 2.078125l0 -5.734375l1.140625 0l1.359375 4.0625q0.1875 0.5625 0.265625 0.84375q0.109375 -0.3125 0.3125 -0.921875l1.375 -3.984375l1.015625 0l0 5.734375l-0.734375 0l0 -4.796875l-1.65625 4.796875l-0.6875 0l-1.65625 -4.875l0 4.875l-0.734375 0zm9.3046875 -0.515625q-0.390625 0.328125 -0.75 0.46875q-0.359375 0.140625 -0.78125 0.140625q-0.671875 0 -1.046875 -0.328125q-0.359375 -0.34375 -0.359375 -0.859375q0 -0.3125 0.125 -0.5625q0.140625 -0.25 0.359375 -0.390625q0.234375 -0.15625 0.515625 -0.234375q0.203125 -0.0625 0.625 -0.109375q0.859375 -0.109375 1.25 -0.25q0.015625 -0.140625 0.015625 -0.171875q0 -0.4375 -0.203125 -0.609375q-0.265625 -0.234375 -0.796875 -0.234375q-0.5 0 -0.734375 0.171875q-0.234375 0.171875 -0.359375 0.609375l-0.6875 -0.09375q0.09375 -0.4375 0.3125 -0.703125q0.21875 -0.28125 0.625 -0.421875q0.40625 -0.15625 0.9375 -0.15625q0.53125 0 0.859375 0.125q0.34375 0.125 0.5 0.328125q0.15625 0.1875 0.21875 0.46875q0.03125 0.1875 0.03125 0.65625l0 0.9375q0 0.96875 0.046875 1.234375q0.046875 0.265625 0.171875 0.5l-0.734375 0q-0.109375 -0.21875 -0.140625 -0.515625zm-0.0625 -1.5625q-0.375 0.15625 -1.140625 0.265625q-0.4375 0.0625 -0.625 0.140625q-0.171875 0.078125 -0.265625 0.234375q-0.09375 0.140625 -0.09375 0.328125q0 0.28125 0.203125 0.46875q0.21875 0.1875 0.625 0.1875q0.40625 0 0.71875 -0.171875q0.328125 -0.1875 0.46875 -0.5q0.109375 -0.234375 0.109375 -0.703125l0 -0.25zm1.8085938 3.671875l0 -5.75l0.640625 0l0 0.546875q0.21875 -0.3125 0.5 -0.46875q0.296875 -0.171875 0.703125 -0.171875q0.53125 0 0.9375 0.28125q0.40625 0.265625 0.609375 0.765625q0.203125 0.5 0.203125 1.09375q0 0.640625 -0.234375 1.15625q-0.21875 0.5 -0.65625 0.78125q-0.4375 0.265625 -0.90625 0.265625q-0.359375 0 -0.640625 -0.140625q-0.28125 -0.15625 -0.453125 -0.390625l0 2.03125l-0.703125 0zm0.640625 -3.640625q0 0.796875 0.3125 1.1875q0.328125 0.375 0.796875 0.375q0.46875 0 0.796875 -0.390625q0.328125 -0.40625 0.328125 -1.234375q0 -0.796875 -0.328125 -1.1875q-0.3125 -0.390625 -0.765625 -0.390625q-0.453125 0 -0.796875 0.421875q-0.34375 0.40625 -0.34375 1.21875zm3.6679688 -0.75q0 -1.421875 0.765625 -2.21875q0.765625 -0.8125 1.96875 -0.8125q0.796875 0 1.4375 0.375q0.640625 0.375 0.96875 1.0625q0.328125 0.671875 0.328125 1.53125q0 0.875 -0.359375 1.5625q-0.34375 0.6875 -0.984375 1.046875q-0.640625 0.34375 -1.390625 0.34375q-0.8125 0 -1.453125 -0.390625q-0.625 -0.390625 -0.953125 -1.0625q-0.328125 -0.671875 -0.328125 -1.4375zm0.78125 0.015625q0 1.03125 0.546875 1.640625q0.5625 0.59375 1.40625 0.59375q0.859375 0 1.40625 -0.59375q0.546875 -0.609375 0.546875 -1.71875q0 -0.703125 -0.234375 -1.21875q-0.234375 -0.53125 -0.6875 -0.8125q-0.453125 -0.28125 -1.015625 -0.28125q-0.8125 0 -1.390625 0.546875q-0.578125 0.546875 -0.578125 1.84375zm5.7539062 2.78125l0 -3.609375l-0.625 0l0 -0.546875l0.625 0l0 -0.4375q0 -0.421875 0.0625 -0.625q0.109375 -0.265625 0.359375 -0.4375q0.265625 -0.171875 0.71875 -0.171875q0.296875 0 0.65625 0.078125l-0.109375 0.609375q-0.21875 -0.046875 -0.40625 -0.046875q-0.328125 0 -0.46875 0.140625q-0.125 0.140625 -0.125 0.515625l0 0.375l0.8125 0l0 0.546875l-0.8125 0l0 3.609375l-0.6875 0zm2.078125 0l0 -3.609375l-0.625 0l0 -0.546875l0.625 0l0 -0.4375q0 -0.421875 0.0625 -0.625q0.109375 -0.265625 0.359375 -0.4375q0.265625 -0.171875 0.71875 -0.171875q0.296875 0 0.65625 0.078125l-0.109375 0.609375q-0.21875 -0.046875 -0.40625 -0.046875q-0.328125 0 -0.46875 0.140625q-0.125 0.140625 -0.125 0.515625l0 0.375l0.8125 0l0 0.546875l-0.8125 0l0 3.609375l-0.6875 0zm1.7695312 -1.234375l0.6875 -0.109375q0.0625 0.40625 0.328125 0.640625q0.265625 0.21875 0.75 0.21875q0.484375 0 0.71875 -0.1875q0.234375 -0.203125 0.234375 -0.46875q0 -0.25 -0.203125 -0.375q-0.140625 -0.09375 -0.71875 -0.25q-0.78125 -0.1875 -1.078125 -0.328125q-0.296875 -0.140625 -0.453125 -0.390625q-0.15625 -0.265625 -0.15625 -0.5625q0 -0.28125 0.125 -0.515625q0.140625 -0.234375 0.359375 -0.390625q0.15625 -0.125 0.4375 -0.203125q0.28125 -0.09375 0.609375 -0.09375q0.484375 0 0.859375 0.140625q0.375 0.140625 0.546875 0.390625q0.171875 0.234375 0.234375 0.640625l-0.6875 0.09375q-0.046875 -0.328125 -0.265625 -0.5q-0.21875 -0.1875 -0.640625 -0.1875q-0.484375 0 -0.6875 0.171875q-0.203125 0.15625 -0.203125 0.375q0 0.125 0.078125 0.234375q0.09375 0.125 0.28125 0.1875q0.09375 0.046875 0.609375 0.1875q0.75 0.203125 1.046875 0.328125q0.296875 0.125 0.453125 0.375q0.171875 0.234375 0.171875 0.59375q0 0.34375 -0.203125 0.65625q-0.203125 0.3125 -0.59375 0.484375q-0.375 0.171875 -0.875 0.171875q-0.796875 0 -1.234375 -0.328125q-0.421875 -0.34375 -0.53125 -1.0zm7.125 -0.109375l0.71875 0.09375q-0.171875 0.640625 -0.640625 1.0q-0.453125 0.34375 -1.1875 0.34375q-0.90625 0 -1.4375 -0.5625q-0.53125 -0.5625 -0.53125 -1.578125q0 -1.046875 0.53125 -1.625q0.546875 -0.578125 1.40625 -0.578125q0.828125 0 1.359375 0.578125q0.53125 0.5625 0.53125 1.59375q0 0.0625 -0.015625 0.1875l-3.09375 0q0.046875 0.671875 0.390625 1.046875q0.34375 0.359375 0.875 0.359375q0.375 0 0.640625 -0.203125q0.28125 -0.203125 0.453125 -0.65625zm-2.3125 -1.125l2.3125 0q-0.046875 -0.53125 -0.265625 -0.796875q-0.328125 -0.40625 -0.875 -0.40625q-0.484375 0 -0.8125 0.328125q-0.328125 0.328125 -0.359375 0.875zm5.4492188 1.84375l0.109375 0.609375q-0.296875 0.078125 -0.53125 0.078125q-0.390625 0 -0.609375 -0.125q-0.203125 -0.125 -0.296875 -0.3125q-0.078125 -0.203125 -0.078125 -0.84375l0 -2.390625l-0.515625 0l0 -0.546875l0.515625 0l0 -1.015625l0.703125 -0.421875l0 1.4375l0.703125 0l0 0.546875l-0.703125 0l0 2.4375q0 0.296875 0.03125 0.390625q0.046875 0.078125 0.125 0.125q0.078125 0.046875 0.234375 0.046875q0.125 0 0.3125 -0.015625zm0.87890625 -2.71875l0 -0.8125l0.8125 0l0 0.8125l-0.8125 0zm0 3.34375l0 -0.796875l0.8125 0l0 0.796875l-0.8125 0zm5.6015625 1.6875q-0.578125 -0.734375 -0.984375 -1.71875q-0.40625 -0.984375 -0.40625 -2.046875q0 -0.921875 0.296875 -1.78125q0.359375 -0.984375 1.09375 -1.96875l0.5 0q-0.46875 0.8125 -0.625 1.15625q-0.234375 0.546875 -0.375 1.125q-0.171875 0.734375 -0.171875 1.46875q0 1.890625 1.171875 3.765625l-0.5 0zm1.1171875 -4.515625q0 -1.015625 0.203125 -1.625q0.21875 -0.625 0.625 -0.953125q0.421875 -0.34375 1.046875 -0.34375q0.453125 0 0.796875 0.1875q0.359375 0.1875 0.578125 0.53125q0.234375 0.34375 0.359375 0.859375q0.125 0.5 0.125 1.34375q0 1.015625 -0.203125 1.640625q-0.203125 0.609375 -0.625 0.953125q-0.40625 0.328125 -1.03125 0.328125q-0.828125 0 -1.296875 -0.59375q-0.578125 -0.71875 -0.578125 -2.328125zm0.734375 0q0 1.40625 0.328125 1.875q0.328125 0.46875 0.8125 0.46875q0.484375 0 0.8125 -0.46875q0.328125 -0.46875 0.328125 -1.875q0 -1.40625 -0.328125 -1.875q-0.328125 -0.46875 -0.828125 -0.46875q-0.484375 0 -0.765625 0.40625q-0.359375 0.53125 -0.359375 1.9375zm4.1054688 2.828125l0 -0.796875l0.796875 0l0 0.796875q0 0.4375 -0.15625 0.703125q-0.15625 0.28125 -0.5 0.4375l-0.1875 -0.3125q0.21875 -0.09375 0.3125 -0.28125q0.109375 -0.1875 0.125 -0.546875l-0.390625 0zm3.9765625 -1.71875l0 -0.703125l2.171875 0l0 0.703125l-2.171875 0zm2.8515625 0.390625l0.671875 -0.0625q0.09375 0.484375 0.328125 0.703125q0.25 0.203125 0.625 0.203125q0.328125 0 0.5625 -0.140625q0.25 -0.15625 0.40625 -0.40625q0.15625 -0.25 0.265625 -0.671875q0.109375 -0.421875 0.109375 -0.859375q0 -0.046875 -0.015625 -0.140625q-0.203125 0.34375 -0.578125 0.5625q-0.359375 0.203125 -0.78125 0.203125q-0.71875 0 -1.21875 -0.515625q-0.484375 -0.515625 -0.484375 -1.359375q0 -0.875 0.515625 -1.40625q0.515625 -0.53125 1.296875 -0.53125q0.546875 0 1.015625 0.296875q0.46875 0.296875 0.703125 0.859375q0.234375 0.5625 0.234375 1.609375q0 1.09375 -0.234375 1.75q-0.234375 0.65625 -0.703125 1.0q-0.46875 0.328125 -1.109375 0.328125q-0.671875 0 -1.09375 -0.375q-0.421875 -0.375 -0.515625 -1.046875zm2.875 -2.53125q0 -0.59375 -0.328125 -0.953125q-0.3125 -0.359375 -0.765625 -0.359375q-0.46875 0 -0.8125 0.390625q-0.34375 0.375 -0.34375 0.984375q0 0.546875 0.328125 0.890625q0.328125 0.34375 0.8125 0.34375q0.484375 0 0.796875 -0.34375q0.3125 -0.34375 0.3125 -0.953125zm5.1210938 -0.46875l-0.703125 0.0625q-0.09375 -0.421875 -0.265625 -0.609375q-0.28125 -0.296875 -0.703125 -0.296875q-0.328125 0 -0.59375 0.1875q-0.328125 0.234375 -0.515625 0.703125q-0.1875 0.46875 -0.203125 1.328125q0.25 -0.390625 0.609375 -0.578125q0.375 -0.1875 0.78125 -0.1875q0.703125 0 1.1875 0.515625q0.5 0.515625 0.5 1.34375q0 0.53125 -0.234375 1.0q-0.21875 0.46875 -0.625 0.71875q-0.40625 0.234375 -0.921875 0.234375q-0.890625 0 -1.453125 -0.640625q-0.546875 -0.65625 -0.546875 -2.140625q0 -1.65625 0.625 -2.40625q0.53125 -0.65625 1.4375 -0.65625q0.671875 0 1.09375 0.375q0.4375 0.375 0.53125 1.046875zm-2.875 2.46875q0 0.359375 0.15625 0.703125q0.15625 0.328125 0.421875 0.5q0.28125 0.171875 0.59375 0.171875q0.4375 0 0.75 -0.359375q0.328125 -0.359375 0.328125 -0.96875q0 -0.59375 -0.3125 -0.9375q-0.3125 -0.34375 -0.796875 -0.34375q-0.46875 0 -0.8125 0.34375q-0.328125 0.34375 -0.328125 0.890625zm4.3242188 3.546875l-0.5 0q1.171875 -1.875 1.171875 -3.765625q0 -0.734375 -0.171875 -1.453125q-0.125 -0.578125 -0.375 -1.125q-0.140625 -0.34375 -0.625 -1.171875l0.5 0q0.734375 0.984375 1.09375 1.96875q0.296875 0.859375 0.296875 1.78125q0 1.0625 -0.40625 2.046875q-0.40625 0.984375 -0.984375 1.71875z" fill-rule="nonzero"/><path fill="#ff9900" d="m477.55905 283.0092l0 0c0 -1.3480835 1.092865 -2.4409485 2.4409485 -2.4409485l0 0c0.6473694 0 1.2682495 0.25717163 1.7260132 0.7149353c0.45776367 0.45776367 0.7149353 1.0786438 0.7149353 1.7260132l0 0c0 1.3480835 -1.092865 2.4409485 -2.4409485 2.4409485l0 0c-1.3480835 0 -2.4409485 -1.092865 -2.4409485 -2.4409485z" fill-rule="evenodd"/><path fill="#000000" fill-opacity="0.0" d="m467.91602 249.82808l12.125977 33.228348" fill-rule="evenodd"/><path stroke="#595959" stroke-width="1.0" stroke-linejoin="round" stroke-linecap="butt" d="m467.91602 249.82808l10.069092 27.591934" fill-rule="evenodd"/><path fill="#595959" stroke="#595959" stroke-width="1.0" stroke-linecap="butt" d="m476.43347 277.98627l3.1073608 3.6968384l-0.0040893555 -4.8293457z" fill-rule="evenodd"/><path fill="#ffe599" fill-opacity="0.4695" d="m417.29135 220.47638l125.41733 0l0 250.86615l-125.41733 0z" fill-rule="evenodd"/><path fill="#000000" fill-opacity="0.0" d="m473.95276 415.59186l6.047241 -13.952759l6.047241 13.952759z" fill-rule="evenodd"/><path stroke="#595959" stroke-width="1.0" stroke-linejoin="round" stroke-linecap="butt" d="m473.95276 415.59186l6.047241 -13.952759l6.047241 13.952759z" fill-rule="evenodd"/><path fill="#000000" fill-opacity="0.0" d="m563.6483 457.87927l21.29132 0" fill-rule="evenodd"/><path stroke="#595959" stroke-width="1.0" stroke-linejoin="round" stroke-linecap="butt" d="m563.6483 457.87927l17.864258 0" fill-rule="evenodd"/><path fill="#595959" stroke="#595959" stroke-width="1.0" stroke-linecap="butt" d="m581.5126 457.87927l-1.1246338 1.1245728l3.0897827 -1.1245728l-3.0897827 -1.1246033z" fill-rule="evenodd"/><path fill="#000000" fill-opacity="0.0" d="m568.7743 465.3701l0 -25.228363" fill-rule="evenodd"/><path stroke="#595959" stroke-width="1.0" stroke-linejoin="round" stroke-linecap="butt" d="m568.7743 465.3701l0 -21.80127" fill-rule="evenodd"/><path fill="#595959" stroke="#595959" stroke-width="1.0" stroke-linecap="butt" d="m568.7743 443.56882l1.1245728 1.1245728l-1.1245728 -3.0897522l-1.1245728 3.0897522z" fill-rule="evenodd"/><path fill="#000000" fill-opacity="0.0" d="m565.95013 434.29135l59.590576 0l0 27.46457l-59.590576 0z" fill-rule="evenodd"/><path fill="#000000" d="m576.34076 449.69135l-1.3125 -3.453125l0.625 0l0.734375 2.0625q0.125 0.34375 0.234375 0.703125q0.0625 -0.28125 0.203125 -0.65625l0.78125 -2.109375l0.59375 0l-1.3125 3.453125l-0.546875 0zm4.734375 -1.109375l0.609375 0.078125q-0.140625 0.53125 -0.53125 0.828125q-0.390625 0.28125 -0.984375 0.28125q-0.765625 0 -1.203125 -0.46875q-0.4375 -0.46875 -0.4375 -1.3125q0 -0.859375 0.4375 -1.34375q0.453125 -0.484375 1.171875 -0.484375q0.6875 0 1.125 0.46875q0.4375 0.46875 0.4375 1.328125q0 0.046875 0 0.15625l-2.578125 0q0.03125 0.578125 0.3125 0.875q0.296875 0.296875 0.734375 0.296875q0.328125 0 0.546875 -0.15625q0.234375 -0.171875 0.359375 -0.546875zm-1.921875 -0.953125l1.9375 0q-0.046875 -0.4375 -0.21875 -0.640625q-0.28125 -0.34375 -0.734375 -0.34375q-0.40625 0 -0.6875 0.265625q-0.265625 0.265625 -0.296875 0.71875zm5.5144043 0.796875l0.578125 0.078125q-0.09375 0.59375 -0.484375 0.9375q-0.390625 0.328125 -0.953125 0.328125q-0.703125 0 -1.140625 -0.453125q-0.421875 -0.46875 -0.421875 -1.34375q0 -0.546875 0.171875 -0.96875q0.1875 -0.421875 0.5625 -0.625q0.390625 -0.21875 0.828125 -0.21875q0.5625 0 0.921875 0.296875q0.359375 0.28125 0.46875 0.796875l-0.578125 0.09375q-0.078125 -0.359375 -0.296875 -0.53125q-0.203125 -0.171875 -0.484375 -0.171875q-0.453125 0 -0.734375 0.3125q-0.265625 0.3125 -0.265625 1.0q0 0.703125 0.265625 1.015625q0.265625 0.3125 0.703125 0.3125q0.34375 0 0.5625 -0.203125q0.234375 -0.21875 0.296875 -0.65625zm3.984375 0.703125l0 0.5625l-3.140625 0q-0.015625 -0.21875 0.0625 -0.40625q0.125 -0.328125 0.390625 -0.640625q0.265625 -0.3125 0.765625 -0.71875q0.78125 -0.640625 1.046875 -1.0q0.28125 -0.375 0.28125 -0.703125q0 -0.359375 -0.25 -0.59375q-0.25 -0.234375 -0.65625 -0.234375q-0.421875 0 -0.671875 0.25q-0.25 0.25 -0.265625 0.703125l-0.59375 -0.0625q0.0625 -0.671875 0.46875 -1.015625q0.40625 -0.359375 1.078125 -0.359375q0.6875 0 1.078125 0.375q0.40625 0.375 0.40625 0.9375q0 0.296875 -0.125 0.578125q-0.109375 0.265625 -0.390625 0.578125q-0.265625 0.296875 -0.890625 0.828125q-0.53125 0.453125 -0.6875 0.609375q-0.140625 0.15625 -0.234375 0.3125l2.328125 0zm2.6293335 0.5625l0 -4.765625l0.59375 0l0 4.765625l-0.59375 0zm1.2756958 -1.71875q0 -0.96875 0.53125 -1.421875q0.453125 -0.390625 1.09375 -0.390625q0.703125 0 1.15625 0.46875q0.453125 0.46875 0.453125 1.28125q0 0.671875 -0.203125 1.0625q-0.1875 0.375 -0.578125 0.59375q-0.375 0.203125 -0.828125 0.203125q-0.734375 0 -1.1875 -0.453125q-0.4375 -0.46875 -0.4375 -1.34375zm0.609375 0q0 0.65625 0.28125 0.984375q0.296875 0.328125 0.734375 0.328125q0.4375 0 0.71875 -0.328125q0.296875 -0.328125 0.296875 -1.015625q0 -0.640625 -0.296875 -0.96875q-0.296875 -0.328125 -0.71875 -0.328125q-0.4375 0 -0.734375 0.328125q-0.28125 0.328125 -0.28125 1.0zm5.5612793 0.453125l0.578125 0.078125q-0.09375 0.59375 -0.484375 0.9375q-0.390625 0.328125 -0.953125 0.328125q-0.703125 0 -1.140625 -0.453125q-0.421875 -0.46875 -0.421875 -1.34375q0 -0.546875 0.171875 -0.96875q0.1875 -0.421875 0.5625 -0.625q0.390625 -0.21875 0.828125 -0.21875q0.5625 0 0.921875 0.296875q0.359375 0.28125 0.46875 0.796875l-0.578125 0.09375q-0.078125 -0.359375 -0.296875 -0.53125q-0.203125 -0.171875 -0.484375 -0.171875q-0.453125 0 -0.734375 0.3125q-0.265625 0.3125 -0.265625 1.0q0 0.703125 0.265625 1.015625q0.265625 0.3125 0.703125 0.3125q0.34375 0 0.5625 -0.203125q0.234375 -0.21875 0.296875 -0.65625zm3.328125 0.84375q-0.328125 0.265625 -0.625 0.390625q-0.296875 0.109375 -0.640625 0.109375q-0.578125 0 -0.890625 -0.28125q-0.296875 -0.28125 -0.296875 -0.703125q0 -0.25 0.109375 -0.453125q0.125 -0.21875 0.3125 -0.34375q0.1875 -0.140625 0.421875 -0.203125q0.171875 -0.046875 0.515625 -0.078125q0.71875 -0.09375 1.046875 -0.203125q0 -0.125 0 -0.15625q0 -0.359375 -0.15625 -0.5q-0.234375 -0.203125 -0.671875 -0.203125q-0.40625 0 -0.609375 0.15625q-0.203125 0.140625 -0.296875 0.5l-0.5625 -0.078125q0.078125 -0.359375 0.25 -0.578125q0.1875 -0.234375 0.515625 -0.359375q0.34375 -0.125 0.78125 -0.125q0.453125 0 0.71875 0.109375q0.28125 0.09375 0.40625 0.265625q0.140625 0.15625 0.1875 0.390625q0.03125 0.15625 0.03125 0.546875l0 0.765625q0 0.828125 0.03125 1.046875q0.046875 0.203125 0.15625 0.40625l-0.609375 0q-0.09375 -0.1875 -0.125 -0.421875zm-0.046875 -1.3125q-0.3125 0.125 -0.953125 0.21875q-0.359375 0.0625 -0.515625 0.125q-0.140625 0.0625 -0.234375 0.1875q-0.078125 0.125 -0.078125 0.28125q0 0.234375 0.171875 0.390625q0.1875 0.15625 0.53125 0.15625q0.328125 0 0.59375 -0.140625q0.265625 -0.15625 0.390625 -0.421875q0.09375 -0.1875 0.09375 -0.578125l0 -0.21875zm2.7799683 1.21875l0.078125 0.515625q-0.25 0.046875 -0.4375 0.046875q-0.3125 0 -0.5 -0.09375q-0.171875 -0.109375 -0.25 -0.265625q-0.0625 -0.171875 -0.0625 -0.703125l0 -1.984375l-0.4375 0l0 -0.453125l0.4375 0l0 -0.859375l0.578125 -0.34375l0 1.203125l0.59375 0l0 0.453125l-0.59375 0l0 2.015625q0 0.25 0.03125 0.328125q0.03125 0.078125 0.09375 0.125q0.078125 0.03125 0.203125 0.03125q0.109375 0 0.265625 -0.015625zm0.56811523 -3.578125l0 -0.671875l0.59375 0l0 0.671875l-0.59375 0zm0 4.09375l0 -3.453125l0.59375 0l0 3.453125l-0.59375 0zm1.2600098 -1.71875q0 -0.96875 0.53125 -1.421875q0.453125 -0.390625 1.09375 -0.390625q0.703125 0 1.15625 0.46875q0.453125 0.46875 0.453125 1.28125q0 0.671875 -0.203125 1.0625q-0.1875 0.375 -0.578125 0.59375q-0.375 0.203125 -0.828125 0.203125q-0.734375 0 -1.1875 -0.453125q-0.4375 -0.46875 -0.4375 -1.34375zm0.609375 0q0 0.65625 0.28125 0.984375q0.296875 0.328125 0.734375 0.328125q0.4375 0 0.71875 -0.328125q0.296875 -0.328125 0.296875 -1.015625q0 -0.640625 -0.296875 -0.96875q-0.296875 -0.328125 -0.71875 -0.328125q-0.4375 0 -0.734375 0.328125q-0.28125 0.328125 -0.28125 1.0zm3.3112793 1.71875l0 -3.453125l0.53125 0l0 0.5q0.375 -0.578125 1.09375 -0.578125q0.3125 0 0.578125 0.109375q0.265625 0.109375 0.390625 0.296875q0.125 0.1875 0.1875 0.4375q0.03125 0.15625 0.03125 0.5625l0 2.125l-0.59375 0l0 -2.09375q0 -0.359375 -0.078125 -0.53125q-0.0625 -0.1875 -0.234375 -0.28125q-0.171875 -0.109375 -0.40625 -0.109375q-0.375 0 -0.640625 0.234375q-0.265625 0.234375 -0.265625 0.890625l0 1.890625l-0.59375 0z" fill-rule="nonzero"/><path fill="#000000" fill-opacity="0.0" d="m556.7248 420.3893l29.29132 0l0 27.46457l-29.29132 0z" fill-rule="evenodd"/><path fill="#000000" d="m565.94354 434.3518l0 -0.578125l1.796875 0l0 0.578125l-1.796875 0zm2.4040527 2.765625l-0.0625 -0.546875q0.203125 0.046875 0.34375 0.046875q0.1875 0 0.296875 -0.0625q0.125 -0.0625 0.203125 -0.1875q0.046875 -0.078125 0.171875 -0.421875q0.015625 -0.0625 0.0625 -0.15625l-1.3125 -3.453125l0.625 0l0.71875 2.0q0.140625 0.375 0.25 0.796875q0.109375 -0.40625 0.25 -0.78125l0.734375 -2.015625l0.578125 0l-1.3125 3.515625q-0.203125 0.5625 -0.328125 0.78125q-0.15625 0.28125 -0.359375 0.421875q-0.203125 0.140625 -0.46875 0.140625q-0.171875 0 -0.390625 -0.078125z" fill-rule="nonzero"/><path fill="#000000" fill-opacity="0.0" d="m576.2722 443.87836l29.29132 0l0 27.46457l-29.29132 0z" fill-rule="evenodd"/><path fill="#000000" d="m586.9441 458.51273l0 -1.3125l-1.296875 0l0 -0.546875l1.296875 0l0 -1.296875l0.546875 0l0 1.296875l1.296875 0l0 0.546875l-1.296875 0l0 1.3125l-0.546875 0zm2.262146 0.765625l1.265625 -1.796875l-1.171875 -1.65625l0.734375 0l0.53125 0.8125q0.140625 0.234375 0.234375 0.390625q0.140625 -0.21875 0.265625 -0.390625l0.578125 -0.8125l0.703125 0l-1.1875 1.625l1.28125 1.828125l-0.71875 0l-0.703125 -1.078125l-0.1875 -0.28125l-0.921875 1.359375l-0.703125 0z" fill-rule="nonzero"/></g></svg>
